<?xml version="1.0" encoding="utf-8"?>
<!-- Generator: Adobe Illustrator 24.3.0, SVG Export Plug-In . SVG Version: 6.00 Build 0)  -->
<svg version="1.1"
	 id="Layer_1" xmlns:cc="http://creativecommons.org/ns#" xmlns:dc="http://purl.org/dc/elements/1.1/" xmlns:inkscape="http://www.inkscape.org/namespaces/inkscape" xmlns:rdf="http://www.w3.org/1999/02/22-rdf-syntax-ns#" xmlns:sodipodi="http://sodipodi.sourceforge.net/DTD/sodipodi-0.dtd" xmlns:svg="http://www.w3.org/2000/svg"
	 xmlns="http://www.w3.org/2000/svg" xmlns:xlink="http://www.w3.org/1999/xlink" x="0px" y="0px" viewBox="0 0 125 125"
	 style="enable-background:new 0 0 125 125;" xml:space="preserve">
<style type="text/css">
	.st0{fill:#FAB75A;}
</style>
<circle class="st0" cx="62.5" cy="62.5" r="55.7"/>
<g transform="translate(0,-952.36218)">
	<path d="M22,974.4c-22.3,22.3-22.3,58.6,0,80.9s58.6,22.3,80.9,0c22.3-22.3,22.3-58.6,0-80.9S44.4,952.1,22,974.4L22,974.4z
		 M24.8,979c25.1,4,44.2,14.9,58.2,31.2c-3.1,3.5-6.4,6.9-10.1,10.3c-5.5-4.6-13.7-6.9-24.2-7.1c-10.3-0.2-23.1,1.7-38.1,5.7
		C9.4,1004.8,14.2,990.2,24.8,979L24.8,979z M29.5,974.6c15-12.3,35.1-14.9,52.3-8c-0.1,12.4,0.8,24.3,9.1,33.8c-1.5,2-3,4-4.6,5.9
		C72.3,990.4,53.5,979.2,29.5,974.6z M11.4,1024.3c15-4,27.5-5.8,37.2-5.6c9.4,0.2,16.2,2.2,20.5,5.4c-11.1,9.9-24.7,19.7-41.1,29.7
		c-0.8-0.7-1.6-1.4-2.3-2.1C18,1043.9,13.2,1034.3,11.4,1024.3L11.4,1024.3z M87,969c4.4,2.4,8.6,5.4,12.3,9.1
		c1.1,1.1,2.2,2.3,3.2,3.5c-2.4,4.9-5.2,9.7-8.4,14.5C87.3,986.3,86.4,978.1,87,969z M32.4,1057.3c15.9-9.8,29.3-19.5,40.3-29.3
		c2.2,3.3,2.9,7.4,2.2,12.8c-0.9,7-4.6,15.9-11.3,26.1C52.7,1067.1,41.7,1063.9,32.4,1057.3z M106,986.3c3.8,5.8,6.3,12.1,7.6,18.7
		c-6.4-0.1-11.6-1.8-15.7-5C100.9,995.4,103.6,990.9,106,986.3z M94.8,1004c5.2,4,11.9,6.1,19.5,6.1c1,10.8-1.4,21.9-7.2,31.5
		c-4.4-11.6-10.2-22.1-17.3-31.2C91.5,1008.3,93.2,1006.2,94.8,1004z M86.4,1014.3c7.2,9.4,12.9,20.3,17.1,32.5
		c-1.3,1.7-2.7,3.3-4.2,4.8c-8.2,8.2-18.5,13.1-29.2,14.7c5.6-9.3,9-17.6,9.9-24.9c0.9-6.6-0.3-12.5-3.5-17
		C80,1021.1,83.3,1017.7,86.4,1014.3L86.4,1014.3z"/>
</g>
</svg>
