<?xml version="1.0" encoding="utf-8"?>
<!-- Generator: Adobe Illustrator 24.3.0, SVG Export Plug-In . SVG Version: 6.00 Build 0)  -->
<svg version="1.1"
	 id="Layer_1" xmlns:cc="http://creativecommons.org/ns#" xmlns:dc="http://purl.org/dc/elements/1.1/" xmlns:inkscape="http://www.inkscape.org/namespaces/inkscape" xmlns:rdf="http://www.w3.org/1999/02/22-rdf-syntax-ns#" xmlns:sodipodi="http://sodipodi.sourceforge.net/DTD/sodipodi-0.dtd" xmlns:svg="http://www.w3.org/2000/svg"
	 xmlns="http://www.w3.org/2000/svg" xmlns:xlink="http://www.w3.org/1999/xlink" x="0px" y="0px" viewBox="0 0 125 125"
	 style="enable-background:new 0 0 125 125;" xml:space="preserve">
<style type="text/css">
	.st0{fill:#D25C0C;}
	.st1{fill:#06D2C5;}
</style>
<g>
	<path class="st0" d="M16.8,34c0,0,45.7,17.9,47,41.8s-35.4,30-35.4,30s47.6,33.6,81-15.5S74.7-0.9,59.1,7.8
		C59.1,7.8,29.3,11.5,16.8,34z"/>
	<path class="st0" d="M112,38.1l-7.2,8.6l-6.6,12.5l-2.4,11.6l2.2,9.6l8.2,8.8l2.1,2.7C108.2,91.8,125.7,71.5,112,38.1z"/>
	<path class="st1" d="M16.8,34c0,0,40.3,20.2,42.1,28.5s13.4,17.1-0.5,27.8s-30.1,15.6-30.1,15.6S8,81,8.7,70.9S10.5,43.3,16.8,34z"
		/>
</g>
<g transform="translate(0,-952.36218)">
	<path d="M57.5,957.9c-31.4,2.8-54.8,30.5-52,62s30.5,54.7,62,52c31.4-2.8,54.8-30.5,52-62S89,955.1,57.5,957.9L57.5,957.9z
		 M56.7,963.2c16.6,19.2,24.3,39.9,24.5,61.3c-4.6,0.7-9.4,1.2-14.4,1.5c-1.3-7-6.1-14-14-21c-7.8-6.8-18.7-13.6-32.8-20.2
		C28.3,973.1,41.4,964.9,56.7,963.2L56.7,963.2z M63.1,962.8c19.3,0.2,36.5,11.1,45.2,27.5c-8,9.4-15,19.2-14.8,31.8
		c-2.4,0.6-4.9,1.1-7.4,1.6C85.8,1002.4,78.5,981.8,63.1,962.8z M17.3,989.2c14.1,6.6,24.8,13.2,32.1,19.6
		c7.1,6.2,11,12.1,12.2,17.3c-14.9,0.5-31.6-0.8-50.5-3.7c-0.2-1-0.3-2.1-0.4-3.1C9.7,1008.5,12.3,998.1,17.3,989.2L17.3,989.2z
		 M110.8,995.5c1.9,4.6,3.1,9.6,3.5,14.9c0.1,1.6,0.2,3.2,0.2,4.7c-5,2.2-10.2,4.1-15.7,5.7C99.8,1009,104.5,1002,110.8,995.5z
		 M12.2,1028c18.5,2.8,34.9,3.9,49.7,3.4c-0.5,3.9-2.6,7.6-6.6,11.2c-5.2,4.8-13.7,9.2-25.4,12.8C21.4,1048.6,15,1039,12.2,1028z
		 M114.2,1020.9c-0.8,6.9-2.9,13.4-6.2,19.2c-4.8-4.2-7.8-8.8-8.8-14C104.4,1024.7,109.4,1022.9,114.2,1020.9z M94.2,1027.4
		c1.4,6.5,5.2,12.3,11,17.2c-6.2,8.9-15.2,15.9-25.8,19.5c4.1-11.7,6.4-23.5,6.8-35.1C89,1028.5,91.6,1028,94.2,1027.4z
		 M81.1,1029.8c-0.5,11.8-3.2,23.8-7.8,35.9c-2.1,0.4-4.2,0.8-6.3,1c-11.6,1-22.6-1.9-31.8-7.5c10.3-3.5,18.2-7.7,23.6-12.7
		c4.9-4.5,7.8-9.8,8.2-15.3C71.9,1030.9,76.6,1030.4,81.1,1029.8L81.1,1029.8z"/>
</g>
</svg>
